# xmcd
#
# Track frame offsets:
#        150
#        49628
#        66448
#        88846
#        104416
#        127441
#
# Disc length: 2095 seconds
#
# Revision: 1
# Processed by: cddbd v1.5.2PL0 Copyright (c) Steve Scherf et al.
# Submitted via: ExactAudioCopy v0.95a4
#
DISCID=5a082d06
DTITLE=Various Artist - Eternal Elysium - Of The Spacistor split CD
DYEAR=2003
DGENRE=rock
TTITLE0=Eternal Elysium/Browny Brownie
TTITLE1=Eternal Elysium/Overprotected
TTITLE2=Eternal Elysium/The Sunpower
TTITLE3=Of The Spacistor/Parasite Image
TTITLE4=Of The Spacistor/Shadow Grow
TTITLE5=Of The Spacistor/Daily Wall
EXTD=
EXTT0=
EXTT1=
EXTT2=
EXTT3=
EXTT4=
EXTT5=
PLAYORDER=
